<svg width="20" height="21" viewBox="0 0 20 21" fill="none" xmlns="http://www.w3.org/2000/svg">
  <g clip-path="url(#clip0_596_131)">
    <path
      d="M19.5001 2.4425L20.9101 3.8525L16.4101 8.3525H20.0001V10.3525H13.0001V3.3525H15.0001V6.9425L19.5001 2.4425ZM20.9101 18.8525L19.5001 20.2625L15.0001 15.7625V19.3525H13.0001V12.3525H20.0001V14.3525H16.4101L20.9101 18.8525ZM4.50009 2.4425L9.00009 6.9425V3.3525H11.0001V10.3525H4.00009V8.3525H7.59009L3.09009 3.8525L4.50009 2.4425ZM3.09009 18.8525L7.59009 14.3525H4.00009V12.3525H11.0001V19.3525H9.00009V15.7625L4.50009 20.2625L3.09009 18.8525Z"
      fill="#00481D" />
    <path
      d="M19.5001 2.4425L20.9101 3.8525L16.4101 8.3525H20.0001V10.3525H13.0001V3.3525H15.0001V6.9425L19.5001 2.4425ZM20.9101 18.8525L19.5001 20.2625L15.0001 15.7625V19.3525H13.0001V12.3525H20.0001V14.3525H16.4101L20.9101 18.8525ZM4.50009 2.4425L9.00009 6.9425V3.3525H11.0001V10.3525H4.00009V8.3525H7.59009L3.09009 3.8525L4.50009 2.4425ZM3.09009 18.8525L7.59009 14.3525H4.00009V12.3525H11.0001V19.3525H9.00009V15.7625L4.50009 20.2625L3.09009 18.8525Z"
      fill="black" fill-opacity="0.2" />
    <path
      d="M19.5001 2.4425L20.9101 3.8525L16.4101 8.3525H20.0001V10.3525H13.0001V3.3525H15.0001V6.9425L19.5001 2.4425ZM20.9101 18.8525L19.5001 20.2625L15.0001 15.7625V19.3525H13.0001V12.3525H20.0001V14.3525H16.4101L20.9101 18.8525ZM4.50009 2.4425L9.00009 6.9425V3.3525H11.0001V10.3525H4.00009V8.3525H7.59009L3.09009 3.8525L4.50009 2.4425ZM3.09009 18.8525L7.59009 14.3525H4.00009V12.3525H11.0001V19.3525H9.00009V15.7625L4.50009 20.2625L3.09009 18.8525Z"
      fill="black" fill-opacity="0.2" />
    <path
      d="M19.5001 2.4425L20.9101 3.8525L16.4101 8.3525H20.0001V10.3525H13.0001V3.3525H15.0001V6.9425L19.5001 2.4425ZM20.9101 18.8525L19.5001 20.2625L15.0001 15.7625V19.3525H13.0001V12.3525H20.0001V14.3525H16.4101L20.9101 18.8525ZM4.50009 2.4425L9.00009 6.9425V3.3525H11.0001V10.3525H4.00009V8.3525H7.59009L3.09009 3.8525L4.50009 2.4425ZM3.09009 18.8525L7.59009 14.3525H4.00009V12.3525H11.0001V19.3525H9.00009V15.7625L4.50009 20.2625L3.09009 18.8525Z"
      fill="black" fill-opacity="0.2" />
    <path
      d="M19.5001 2.4425L20.9101 3.8525L16.4101 8.3525H20.0001V10.3525H13.0001V3.3525H15.0001V6.9425L19.5001 2.4425ZM20.9101 18.8525L19.5001 20.2625L15.0001 15.7625V19.3525H13.0001V12.3525H20.0001V14.3525H16.4101L20.9101 18.8525ZM4.50009 2.4425L9.00009 6.9425V3.3525H11.0001V10.3525H4.00009V8.3525H7.59009L3.09009 3.8525L4.50009 2.4425ZM3.09009 18.8525L7.59009 14.3525H4.00009V12.3525H11.0001V19.3525H9.00009V15.7625L4.50009 20.2625L3.09009 18.8525Z"
      fill="black" fill-opacity="0.2" />
    <path
      d="M19.5001 2.4425L20.9101 3.8525L16.4101 8.3525H20.0001V10.3525H13.0001V3.3525H15.0001V6.9425L19.5001 2.4425ZM20.9101 18.8525L19.5001 20.2625L15.0001 15.7625V19.3525H13.0001V12.3525H20.0001V14.3525H16.4101L20.9101 18.8525ZM4.50009 2.4425L9.00009 6.9425V3.3525H11.0001V10.3525H4.00009V8.3525H7.59009L3.09009 3.8525L4.50009 2.4425ZM3.09009 18.8525L7.59009 14.3525H4.00009V12.3525H11.0001V19.3525H9.00009V15.7625L4.50009 20.2625L3.09009 18.8525Z"
      fill="black" fill-opacity="0.2" />
    <path
      d="M19.5001 2.4425L20.9101 3.8525L16.4101 8.3525H20.0001V10.3525H13.0001V3.3525H15.0001V6.9425L19.5001 2.4425ZM20.9101 18.8525L19.5001 20.2625L15.0001 15.7625V19.3525H13.0001V12.3525H20.0001V14.3525H16.4101L20.9101 18.8525ZM4.50009 2.4425L9.00009 6.9425V3.3525H11.0001V10.3525H4.00009V8.3525H7.59009L3.09009 3.8525L4.50009 2.4425ZM3.09009 18.8525L7.59009 14.3525H4.00009V12.3525H11.0001V19.3525H9.00009V15.7625L4.50009 20.2625L3.09009 18.8525Z"
      fill="black" fill-opacity="0.2" />
    <path
      d="M19.5001 2.4425L20.9101 3.8525L16.4101 8.3525H20.0001V10.3525H13.0001V3.3525H15.0001V6.9425L19.5001 2.4425ZM20.9101 18.8525L19.5001 20.2625L15.0001 15.7625V19.3525H13.0001V12.3525H20.0001V14.3525H16.4101L20.9101 18.8525ZM4.50009 2.4425L9.00009 6.9425V3.3525H11.0001V10.3525H4.00009V8.3525H7.59009L3.09009 3.8525L4.50009 2.4425ZM3.09009 18.8525L7.59009 14.3525H4.00009V12.3525H11.0001V19.3525H9.00009V15.7625L4.50009 20.2625L3.09009 18.8525Z"
      fill="black" fill-opacity="0.2" />
    <path
      d="M19.5001 2.4425L20.9101 3.8525L16.4101 8.3525H20.0001V10.3525H13.0001V3.3525H15.0001V6.9425L19.5001 2.4425ZM20.9101 18.8525L19.5001 20.2625L15.0001 15.7625V19.3525H13.0001V12.3525H20.0001V14.3525H16.4101L20.9101 18.8525ZM4.50009 2.4425L9.00009 6.9425V3.3525H11.0001V10.3525H4.00009V8.3525H7.59009L3.09009 3.8525L4.50009 2.4425ZM3.09009 18.8525L7.59009 14.3525H4.00009V12.3525H11.0001V19.3525H9.00009V15.7625L4.50009 20.2625L3.09009 18.8525Z"
      fill="black" fill-opacity="0.2" />
    <path
      d="M19.5001 2.4425L20.9101 3.8525L16.4101 8.3525H20.0001V10.3525H13.0001V3.3525H15.0001V6.9425L19.5001 2.4425ZM20.9101 18.8525L19.5001 20.2625L15.0001 15.7625V19.3525H13.0001V12.3525H20.0001V14.3525H16.4101L20.9101 18.8525ZM4.50009 2.4425L9.00009 6.9425V3.3525H11.0001V10.3525H4.00009V8.3525H7.59009L3.09009 3.8525L4.50009 2.4425ZM3.09009 18.8525L7.59009 14.3525H4.00009V12.3525H11.0001V19.3525H9.00009V15.7625L4.50009 20.2625L3.09009 18.8525Z"
      fill="black" fill-opacity="0.2" />
    <path
      d="M19.5001 2.4425L20.9101 3.8525L16.4101 8.3525H20.0001V10.3525H13.0001V3.3525H15.0001V6.9425L19.5001 2.4425ZM20.9101 18.8525L19.5001 20.2625L15.0001 15.7625V19.3525H13.0001V12.3525H20.0001V14.3525H16.4101L20.9101 18.8525ZM4.50009 2.4425L9.00009 6.9425V3.3525H11.0001V10.3525H4.00009V8.3525H7.59009L3.09009 3.8525L4.50009 2.4425ZM3.09009 18.8525L7.59009 14.3525H4.00009V12.3525H11.0001V19.3525H9.00009V15.7625L4.50009 20.2625L3.09009 18.8525Z"
      fill="black" fill-opacity="0.2" />
  </g>
  <defs>
    <clipPath id="clip0_596_131">
      <rect width="20" height="20" fill="white" transform="translate(0 0.352417)" />
    </clipPath>
  </defs>
</svg>