<svg width="31" height="31" viewBox="0 0 31 31" fill="none" xmlns="http://www.w3.org/2000/svg">
  <g clip-path="url(#clip0_596_91)">
    <rect width="30.3524" height="30.3524" fill="#D3F4E0" />
    <path
      d="M24.5393 30.3481C24.881 30.3488 25.2219 30.3488 25.5636 30.3488C27.0876 30.3488 28.6115 30.3466 30.1363 30.3525C30.3031 30.3525 30.3638 30.3064 30.3514 30.1366C30.3199 29.7182 30.3265 29.2954 30.2702 28.8806C30.1011 27.6362 29.698 26.4664 29.0461 25.391C28.0533 23.7538 26.7356 22.4721 24.9293 21.761C23.6613 21.2621 22.3678 21.1802 21.0816 21.6945C19.9769 22.1363 19.2225 22.9074 18.916 24.0874C18.7309 24.7992 18.7411 25.5256 18.7272 26.2469C18.7024 27.533 18.7199 28.8191 18.7206 30.1052C18.7206 30.3473 18.7214 30.3481 18.9614 30.3481C20.8204 30.3481 22.6802 30.3481 24.5393 30.3481ZM5.81469 30.3481C7.66791 30.3481 9.52186 30.3481 11.3751 30.3481C11.6268 30.3481 11.6282 30.3473 11.6268 30.0993C11.618 28.637 11.6165 27.1746 11.5938 25.7122C11.5865 25.2579 11.5536 24.7985 11.479 24.3507C11.2609 23.0383 10.4715 22.1744 9.26067 21.693C7.86765 21.1385 6.48925 21.2906 5.14232 21.8722C4.12682 22.3104 3.26057 22.9652 2.51431 23.7779C0.874726 25.5673 0.0172558 27.6706 -0.000303296 30.1059C-0.00176656 30.3473 -0.000303294 30.3481 0.236013 30.3481C2.09582 30.3481 3.95489 30.3481 5.81469 30.3481ZM0.0333517 0.01835C6.86312 3.70321 11.1775 9.28282 12.9708 16.8128C12.9876 16.6313 12.9883 16.4528 12.9876 16.2743C12.9752 14.2516 12.9678 12.2288 12.9481 10.206C12.9378 9.16357 12.834 8.12915 12.6649 7.09984C12.5164 6.1971 12.3042 5.31264 11.9977 4.45087C11.4343 2.86851 10.5886 1.44855 9.52771 0.150762C9.44138 0.0461493 9.35724 6.10352e-05 9.22116 6.10352e-05C6.22221 0.00371883 3.22326 0.00298727 0.224307 0.00371883C0.16724 0.00371883 0.110904 0.0124975 0.0326201 0.0190816L0.0333517 0.01835ZM30.3089 0.0234709C30.2445 0.0146922 30.1992 0.00298727 30.1531 0.00298727C27.1366 0.00225571 24.1193 0.00152415 21.1028 0.00810819C21.0158 0.00810819 20.9024 0.0651698 20.846 0.133205C19.1033 2.21376 18.0461 4.60303 17.6459 7.28493C17.4535 8.57613 17.3744 9.87611 17.3642 11.1798C17.3496 12.9896 17.3598 14.7995 17.3598 16.6094C17.3598 16.6767 17.3598 16.744 17.3598 16.8113C19.1721 9.28428 23.4821 3.70834 30.3089 0.0234709ZM19.0835 18.3995C19.0974 18.4105 19.1113 18.4215 19.1252 18.4324C19.1545 18.4149 19.186 18.4002 19.213 18.3798C20.5431 17.387 22.0261 16.7762 23.6767 16.5706C24.6951 16.4433 25.7055 16.4726 26.7086 16.6884C28.065 16.9803 29.1647 17.6855 30.0258 18.7689C30.1202 18.8875 30.2109 19.0096 30.3287 19.1625V8.97629C27.0663 9.64787 24.3198 11.1805 22.0744 13.6027C20.7692 15.0102 19.7742 16.6123 19.0835 18.3995ZM11.2258 18.4332L11.2631 18.4039C10.8454 17.2875 10.285 16.2429 9.60307 15.264C7.86911 12.7753 5.59813 10.9515 2.79013 9.80223C1.89754 9.43718 0.977154 9.16357 0.0238405 8.9858V19.1581C0.199432 18.9321 0.339905 18.7338 0.498668 18.5509C1.57343 17.3161 2.95256 16.6855 4.56434 16.537C5.52716 16.4477 6.48486 16.4923 7.43452 16.6957C8.52904 16.9298 9.55113 17.338 10.4942 17.9401C10.7422 18.0981 10.9829 18.2693 11.2273 18.4339L11.2258 18.4332Z"
      fill="white" />
    <path
      d="M24.5395 30.348C22.6804 30.348 20.8206 30.348 18.9615 30.348C18.7216 30.348 18.7208 30.3465 18.7208 30.1051C18.7208 28.819 18.7025 27.5322 18.7274 26.2468C18.7413 25.5255 18.7311 24.7991 18.9162 24.0873C19.2227 22.9073 19.977 22.1362 21.0818 21.6943C22.368 21.1801 23.6615 21.262 24.9294 21.7609C26.7358 22.472 28.0535 23.7537 29.0463 25.3909C29.6982 26.4663 30.1013 27.6353 30.2703 28.8805C30.3267 29.2952 30.3201 29.7181 30.3516 30.1365C30.3647 30.3063 30.304 30.3531 30.1365 30.3523C28.6125 30.3465 27.0885 30.3487 25.5638 30.3487C25.2221 30.3487 24.8812 30.3487 24.5395 30.3487V30.348Z"
      fill="#00481D" />
    <path
      d="M24.5395 30.348C22.6804 30.348 20.8206 30.348 18.9615 30.348C18.7216 30.348 18.7208 30.3465 18.7208 30.1051C18.7208 28.819 18.7025 27.5322 18.7274 26.2468C18.7413 25.5255 18.7311 24.7991 18.9162 24.0873C19.2227 22.9073 19.977 22.1362 21.0818 21.6943C22.368 21.1801 23.6615 21.262 24.9294 21.7609C26.7358 22.472 28.0535 23.7537 29.0463 25.3909C29.6982 26.4663 30.1013 27.6353 30.2703 28.8805C30.3267 29.2952 30.3201 29.7181 30.3516 30.1365C30.3647 30.3063 30.304 30.3531 30.1365 30.3523C28.6125 30.3465 27.0885 30.3487 25.5638 30.3487C25.2221 30.3487 24.8812 30.3487 24.5395 30.3487V30.348Z"
      fill="black" fill-opacity="0.2" />
    <path
      d="M24.5395 30.348C22.6804 30.348 20.8206 30.348 18.9615 30.348C18.7216 30.348 18.7208 30.3465 18.7208 30.1051C18.7208 28.819 18.7025 27.5322 18.7274 26.2468C18.7413 25.5255 18.7311 24.7991 18.9162 24.0873C19.2227 22.9073 19.977 22.1362 21.0818 21.6943C22.368 21.1801 23.6615 21.262 24.9294 21.7609C26.7358 22.472 28.0535 23.7537 29.0463 25.3909C29.6982 26.4663 30.1013 27.6353 30.2703 28.8805C30.3267 29.2952 30.3201 29.7181 30.3516 30.1365C30.3647 30.3063 30.304 30.3531 30.1365 30.3523C28.6125 30.3465 27.0885 30.3487 25.5638 30.3487C25.2221 30.3487 24.8812 30.3487 24.5395 30.3487V30.348Z"
      fill="black" fill-opacity="0.2" />
    <path
      d="M24.5395 30.348C22.6804 30.348 20.8206 30.348 18.9615 30.348C18.7216 30.348 18.7208 30.3465 18.7208 30.1051C18.7208 28.819 18.7025 27.5322 18.7274 26.2468C18.7413 25.5255 18.7311 24.7991 18.9162 24.0873C19.2227 22.9073 19.977 22.1362 21.0818 21.6943C22.368 21.1801 23.6615 21.262 24.9294 21.7609C26.7358 22.472 28.0535 23.7537 29.0463 25.3909C29.6982 26.4663 30.1013 27.6353 30.2703 28.8805C30.3267 29.2952 30.3201 29.7181 30.3516 30.1365C30.3647 30.3063 30.304 30.3531 30.1365 30.3523C28.6125 30.3465 27.0885 30.3487 25.5638 30.3487C25.2221 30.3487 24.8812 30.3487 24.5395 30.3487V30.348Z"
      fill="black" fill-opacity="0.2" />
    <path
      d="M24.5395 30.348C22.6804 30.348 20.8206 30.348 18.9615 30.348C18.7216 30.348 18.7208 30.3465 18.7208 30.1051C18.7208 28.819 18.7025 27.5322 18.7274 26.2468C18.7413 25.5255 18.7311 24.7991 18.9162 24.0873C19.2227 22.9073 19.977 22.1362 21.0818 21.6943C22.368 21.1801 23.6615 21.262 24.9294 21.7609C26.7358 22.472 28.0535 23.7537 29.0463 25.3909C29.6982 26.4663 30.1013 27.6353 30.2703 28.8805C30.3267 29.2952 30.3201 29.7181 30.3516 30.1365C30.3647 30.3063 30.304 30.3531 30.1365 30.3523C28.6125 30.3465 27.0885 30.3487 25.5638 30.3487C25.2221 30.3487 24.8812 30.3487 24.5395 30.3487V30.348Z"
      fill="black" fill-opacity="0.2" />
    <path
      d="M24.5395 30.348C22.6804 30.348 20.8206 30.348 18.9615 30.348C18.7216 30.348 18.7208 30.3465 18.7208 30.1051C18.7208 28.819 18.7025 27.5322 18.7274 26.2468C18.7413 25.5255 18.7311 24.7991 18.9162 24.0873C19.2227 22.9073 19.977 22.1362 21.0818 21.6943C22.368 21.1801 23.6615 21.262 24.9294 21.7609C26.7358 22.472 28.0535 23.7537 29.0463 25.3909C29.6982 26.4663 30.1013 27.6353 30.2703 28.8805C30.3267 29.2952 30.3201 29.7181 30.3516 30.1365C30.3647 30.3063 30.304 30.3531 30.1365 30.3523C28.6125 30.3465 27.0885 30.3487 25.5638 30.3487C25.2221 30.3487 24.8812 30.3487 24.5395 30.3487V30.348Z"
      fill="black" fill-opacity="0.2" />
    <path
      d="M24.5395 30.348C22.6804 30.348 20.8206 30.348 18.9615 30.348C18.7216 30.348 18.7208 30.3465 18.7208 30.1051C18.7208 28.819 18.7025 27.5322 18.7274 26.2468C18.7413 25.5255 18.7311 24.7991 18.9162 24.0873C19.2227 22.9073 19.977 22.1362 21.0818 21.6943C22.368 21.1801 23.6615 21.262 24.9294 21.7609C26.7358 22.472 28.0535 23.7537 29.0463 25.3909C29.6982 26.4663 30.1013 27.6353 30.2703 28.8805C30.3267 29.2952 30.3201 29.7181 30.3516 30.1365C30.3647 30.3063 30.304 30.3531 30.1365 30.3523C28.6125 30.3465 27.0885 30.3487 25.5638 30.3487C25.2221 30.3487 24.8812 30.3487 24.5395 30.3487V30.348Z"
      fill="black" fill-opacity="0.2" />
    <path
      d="M24.5395 30.348C22.6804 30.348 20.8206 30.348 18.9615 30.348C18.7216 30.348 18.7208 30.3465 18.7208 30.1051C18.7208 28.819 18.7025 27.5322 18.7274 26.2468C18.7413 25.5255 18.7311 24.7991 18.9162 24.0873C19.2227 22.9073 19.977 22.1362 21.0818 21.6943C22.368 21.1801 23.6615 21.262 24.9294 21.7609C26.7358 22.472 28.0535 23.7537 29.0463 25.3909C29.6982 26.4663 30.1013 27.6353 30.2703 28.8805C30.3267 29.2952 30.3201 29.7181 30.3516 30.1365C30.3647 30.3063 30.304 30.3531 30.1365 30.3523C28.6125 30.3465 27.0885 30.3487 25.5638 30.3487C25.2221 30.3487 24.8812 30.3487 24.5395 30.3487V30.348Z"
      fill="black" fill-opacity="0.2" />
    <path
      d="M24.5395 30.348C22.6804 30.348 20.8206 30.348 18.9615 30.348C18.7216 30.348 18.7208 30.3465 18.7208 30.1051C18.7208 28.819 18.7025 27.5322 18.7274 26.2468C18.7413 25.5255 18.7311 24.7991 18.9162 24.0873C19.2227 22.9073 19.977 22.1362 21.0818 21.6943C22.368 21.1801 23.6615 21.262 24.9294 21.7609C26.7358 22.472 28.0535 23.7537 29.0463 25.3909C29.6982 26.4663 30.1013 27.6353 30.2703 28.8805C30.3267 29.2952 30.3201 29.7181 30.3516 30.1365C30.3647 30.3063 30.304 30.3531 30.1365 30.3523C28.6125 30.3465 27.0885 30.3487 25.5638 30.3487C25.2221 30.3487 24.8812 30.3487 24.5395 30.3487V30.348Z"
      fill="black" fill-opacity="0.2" />
    <path
      d="M24.5395 30.348C22.6804 30.348 20.8206 30.348 18.9615 30.348C18.7216 30.348 18.7208 30.3465 18.7208 30.1051C18.7208 28.819 18.7025 27.5322 18.7274 26.2468C18.7413 25.5255 18.7311 24.7991 18.9162 24.0873C19.2227 22.9073 19.977 22.1362 21.0818 21.6943C22.368 21.1801 23.6615 21.262 24.9294 21.7609C26.7358 22.472 28.0535 23.7537 29.0463 25.3909C29.6982 26.4663 30.1013 27.6353 30.2703 28.8805C30.3267 29.2952 30.3201 29.7181 30.3516 30.1365C30.3647 30.3063 30.304 30.3531 30.1365 30.3523C28.6125 30.3465 27.0885 30.3487 25.5638 30.3487C25.2221 30.3487 24.8812 30.3487 24.5395 30.3487V30.348Z"
      fill="black" fill-opacity="0.2" />
    <path
      d="M24.5395 30.348C22.6804 30.348 20.8206 30.348 18.9615 30.348C18.7216 30.348 18.7208 30.3465 18.7208 30.1051C18.7208 28.819 18.7025 27.5322 18.7274 26.2468C18.7413 25.5255 18.7311 24.7991 18.9162 24.0873C19.2227 22.9073 19.977 22.1362 21.0818 21.6943C22.368 21.1801 23.6615 21.262 24.9294 21.7609C26.7358 22.472 28.0535 23.7537 29.0463 25.3909C29.6982 26.4663 30.1013 27.6353 30.2703 28.8805C30.3267 29.2952 30.3201 29.7181 30.3516 30.1365C30.3647 30.3063 30.304 30.3531 30.1365 30.3523C28.6125 30.3465 27.0885 30.3487 25.5638 30.3487C25.2221 30.3487 24.8812 30.3487 24.5395 30.3487V30.348Z"
      fill="black" fill-opacity="0.2" />
    <path
      d="M5.81495 30.3489C3.95515 30.3489 2.09608 30.3489 0.236275 30.3489C-4.13273e-05 30.3489 -0.00223622 30.3481 -4.13275e-05 30.1067C0.0175178 27.6713 0.874257 25.5681 2.5153 23.7787C3.26083 22.9652 4.12782 22.3112 5.14332 21.873C6.49025 21.2914 7.86864 21.1393 9.26166 21.6938C10.4725 22.1759 11.2612 23.0391 11.48 24.3515C11.5546 24.7992 11.5875 25.2587 11.5948 25.713C11.6175 27.1753 11.619 28.6377 11.6278 30.1001C11.6292 30.3481 11.6278 30.3489 11.3761 30.3489C9.52286 30.3489 7.6689 30.3489 5.81569 30.3489H5.81495Z"
      fill="#00481D" />
    <path
      d="M5.81495 30.3489C3.95515 30.3489 2.09608 30.3489 0.236275 30.3489C-4.13273e-05 30.3489 -0.00223622 30.3481 -4.13275e-05 30.1067C0.0175178 27.6713 0.874257 25.5681 2.5153 23.7787C3.26083 22.9652 4.12782 22.3112 5.14332 21.873C6.49025 21.2914 7.86864 21.1393 9.26166 21.6938C10.4725 22.1759 11.2612 23.0391 11.48 24.3515C11.5546 24.7992 11.5875 25.2587 11.5948 25.713C11.6175 27.1753 11.619 28.6377 11.6278 30.1001C11.6292 30.3481 11.6278 30.3489 11.3761 30.3489C9.52286 30.3489 7.6689 30.3489 5.81569 30.3489H5.81495Z"
      fill="black" fill-opacity="0.2" />
    <path
      d="M5.81495 30.3489C3.95515 30.3489 2.09608 30.3489 0.236275 30.3489C-4.13273e-05 30.3489 -0.00223622 30.3481 -4.13275e-05 30.1067C0.0175178 27.6713 0.874257 25.5681 2.5153 23.7787C3.26083 22.9652 4.12782 22.3112 5.14332 21.873C6.49025 21.2914 7.86864 21.1393 9.26166 21.6938C10.4725 22.1759 11.2612 23.0391 11.48 24.3515C11.5546 24.7992 11.5875 25.2587 11.5948 25.713C11.6175 27.1753 11.619 28.6377 11.6278 30.1001C11.6292 30.3481 11.6278 30.3489 11.3761 30.3489C9.52286 30.3489 7.6689 30.3489 5.81569 30.3489H5.81495Z"
      fill="black" fill-opacity="0.2" />
    <path
      d="M5.81495 30.3489C3.95515 30.3489 2.09608 30.3489 0.236275 30.3489C-4.13273e-05 30.3489 -0.00223622 30.3481 -4.13275e-05 30.1067C0.0175178 27.6713 0.874257 25.5681 2.5153 23.7787C3.26083 22.9652 4.12782 22.3112 5.14332 21.873C6.49025 21.2914 7.86864 21.1393 9.26166 21.6938C10.4725 22.1759 11.2612 23.0391 11.48 24.3515C11.5546 24.7992 11.5875 25.2587 11.5948 25.713C11.6175 27.1753 11.619 28.6377 11.6278 30.1001C11.6292 30.3481 11.6278 30.3489 11.3761 30.3489C9.52286 30.3489 7.6689 30.3489 5.81569 30.3489H5.81495Z"
      fill="black" fill-opacity="0.2" />
    <path
      d="M5.81495 30.3489C3.95515 30.3489 2.09608 30.3489 0.236275 30.3489C-4.13273e-05 30.3489 -0.00223622 30.3481 -4.13275e-05 30.1067C0.0175178 27.6713 0.874257 25.5681 2.5153 23.7787C3.26083 22.9652 4.12782 22.3112 5.14332 21.873C6.49025 21.2914 7.86864 21.1393 9.26166 21.6938C10.4725 22.1759 11.2612 23.0391 11.48 24.3515C11.5546 24.7992 11.5875 25.2587 11.5948 25.713C11.6175 27.1753 11.619 28.6377 11.6278 30.1001C11.6292 30.3481 11.6278 30.3489 11.3761 30.3489C9.52286 30.3489 7.6689 30.3489 5.81569 30.3489H5.81495Z"
      fill="black" fill-opacity="0.2" />
    <path
      d="M5.81495 30.3489C3.95515 30.3489 2.09608 30.3489 0.236275 30.3489C-4.13273e-05 30.3489 -0.00223622 30.3481 -4.13275e-05 30.1067C0.0175178 27.6713 0.874257 25.5681 2.5153 23.7787C3.26083 22.9652 4.12782 22.3112 5.14332 21.873C6.49025 21.2914 7.86864 21.1393 9.26166 21.6938C10.4725 22.1759 11.2612 23.0391 11.48 24.3515C11.5546 24.7992 11.5875 25.2587 11.5948 25.713C11.6175 27.1753 11.619 28.6377 11.6278 30.1001C11.6292 30.3481 11.6278 30.3489 11.3761 30.3489C9.52286 30.3489 7.6689 30.3489 5.81569 30.3489H5.81495Z"
      fill="black" fill-opacity="0.2" />
    <path
      d="M5.81495 30.3489C3.95515 30.3489 2.09608 30.3489 0.236275 30.3489C-4.13273e-05 30.3489 -0.00223622 30.3481 -4.13275e-05 30.1067C0.0175178 27.6713 0.874257 25.5681 2.5153 23.7787C3.26083 22.9652 4.12782 22.3112 5.14332 21.873C6.49025 21.2914 7.86864 21.1393 9.26166 21.6938C10.4725 22.1759 11.2612 23.0391 11.48 24.3515C11.5546 24.7992 11.5875 25.2587 11.5948 25.713C11.6175 27.1753 11.619 28.6377 11.6278 30.1001C11.6292 30.3481 11.6278 30.3489 11.3761 30.3489C9.52286 30.3489 7.6689 30.3489 5.81569 30.3489H5.81495Z"
      fill="black" fill-opacity="0.2" />
    <path
      d="M5.81495 30.3489C3.95515 30.3489 2.09608 30.3489 0.236275 30.3489C-4.13273e-05 30.3489 -0.00223622 30.3481 -4.13275e-05 30.1067C0.0175178 27.6713 0.874257 25.5681 2.5153 23.7787C3.26083 22.9652 4.12782 22.3112 5.14332 21.873C6.49025 21.2914 7.86864 21.1393 9.26166 21.6938C10.4725 22.1759 11.2612 23.0391 11.48 24.3515C11.5546 24.7992 11.5875 25.2587 11.5948 25.713C11.6175 27.1753 11.619 28.6377 11.6278 30.1001C11.6292 30.3481 11.6278 30.3489 11.3761 30.3489C9.52286 30.3489 7.6689 30.3489 5.81569 30.3489H5.81495Z"
      fill="black" fill-opacity="0.2" />
    <path
      d="M5.81495 30.3489C3.95515 30.3489 2.09608 30.3489 0.236275 30.3489C-4.13273e-05 30.3489 -0.00223622 30.3481 -4.13275e-05 30.1067C0.0175178 27.6713 0.874257 25.5681 2.5153 23.7787C3.26083 22.9652 4.12782 22.3112 5.14332 21.873C6.49025 21.2914 7.86864 21.1393 9.26166 21.6938C10.4725 22.1759 11.2612 23.0391 11.48 24.3515C11.5546 24.7992 11.5875 25.2587 11.5948 25.713C11.6175 27.1753 11.619 28.6377 11.6278 30.1001C11.6292 30.3481 11.6278 30.3489 11.3761 30.3489C9.52286 30.3489 7.6689 30.3489 5.81569 30.3489H5.81495Z"
      fill="black" fill-opacity="0.2" />
    <path
      d="M5.81495 30.3489C3.95515 30.3489 2.09608 30.3489 0.236275 30.3489C-4.13273e-05 30.3489 -0.00223622 30.3481 -4.13275e-05 30.1067C0.0175178 27.6713 0.874257 25.5681 2.5153 23.7787C3.26083 22.9652 4.12782 22.3112 5.14332 21.873C6.49025 21.2914 7.86864 21.1393 9.26166 21.6938C10.4725 22.1759 11.2612 23.0391 11.48 24.3515C11.5546 24.7992 11.5875 25.2587 11.5948 25.713C11.6175 27.1753 11.619 28.6377 11.6278 30.1001C11.6292 30.3481 11.6278 30.3489 11.3761 30.3489C9.52286 30.3489 7.6689 30.3489 5.81569 30.3489H5.81495Z"
      fill="black" fill-opacity="0.2" />
    <path
      d="M5.81495 30.3489C3.95515 30.3489 2.09608 30.3489 0.236275 30.3489C-4.13273e-05 30.3489 -0.00223622 30.3481 -4.13275e-05 30.1067C0.0175178 27.6713 0.874257 25.5681 2.5153 23.7787C3.26083 22.9652 4.12782 22.3112 5.14332 21.873C6.49025 21.2914 7.86864 21.1393 9.26166 21.6938C10.4725 22.1759 11.2612 23.0391 11.48 24.3515C11.5546 24.7992 11.5875 25.2587 11.5948 25.713C11.6175 27.1753 11.619 28.6377 11.6278 30.1001C11.6292 30.3481 11.6278 30.3489 11.3761 30.3489C9.52286 30.3489 7.6689 30.3489 5.81569 30.3489H5.81495Z"
      fill="black" fill-opacity="0.2" />
    <path
      d="M0.0339355 0.018289C0.111488 0.0124365 0.168555 0.0036578 0.224891 0.0036578C3.22384 0.00292624 6.22279 0.0036578 9.22174 0C9.35856 0 9.44269 0.0460882 9.5283 0.150701C10.5892 1.44849 11.4349 2.86844 11.9983 4.45081C12.3048 5.31258 12.517 6.19704 12.6655 7.09978C12.8345 8.12909 12.9384 9.16424 12.9487 10.206C12.9684 12.2287 12.9757 14.2515 12.9882 16.2743C12.9889 16.4528 12.9882 16.6313 12.9713 16.8127C11.1781 9.28276 6.86297 3.70315 0.0339355 0.018289Z"
      fill="#00481D" />
    <path
      d="M0.0339355 0.018289C0.111488 0.0124365 0.168555 0.0036578 0.224891 0.0036578C3.22384 0.00292624 6.22279 0.0036578 9.22174 0C9.35856 0 9.44269 0.0460882 9.5283 0.150701C10.5892 1.44849 11.4349 2.86844 11.9983 4.45081C12.3048 5.31258 12.517 6.19704 12.6655 7.09978C12.8345 8.12909 12.9384 9.16424 12.9487 10.206C12.9684 12.2287 12.9757 14.2515 12.9882 16.2743C12.9889 16.4528 12.9882 16.6313 12.9713 16.8127C11.1781 9.28276 6.86297 3.70315 0.0339355 0.018289Z"
      fill="black" fill-opacity="0.2" />
    <path
      d="M0.0339355 0.018289C0.111488 0.0124365 0.168555 0.0036578 0.224891 0.0036578C3.22384 0.00292624 6.22279 0.0036578 9.22174 0C9.35856 0 9.44269 0.0460882 9.5283 0.150701C10.5892 1.44849 11.4349 2.86844 11.9983 4.45081C12.3048 5.31258 12.517 6.19704 12.6655 7.09978C12.8345 8.12909 12.9384 9.16424 12.9487 10.206C12.9684 12.2287 12.9757 14.2515 12.9882 16.2743C12.9889 16.4528 12.9882 16.6313 12.9713 16.8127C11.1781 9.28276 6.86297 3.70315 0.0339355 0.018289Z"
      fill="black" fill-opacity="0.2" />
    <path
      d="M0.0339355 0.018289C0.111488 0.0124365 0.168555 0.0036578 0.224891 0.0036578C3.22384 0.00292624 6.22279 0.0036578 9.22174 0C9.35856 0 9.44269 0.0460882 9.5283 0.150701C10.5892 1.44849 11.4349 2.86844 11.9983 4.45081C12.3048 5.31258 12.517 6.19704 12.6655 7.09978C12.8345 8.12909 12.9384 9.16424 12.9487 10.206C12.9684 12.2287 12.9757 14.2515 12.9882 16.2743C12.9889 16.4528 12.9882 16.6313 12.9713 16.8127C11.1781 9.28276 6.86297 3.70315 0.0339355 0.018289Z"
      fill="black" fill-opacity="0.2" />
    <path
      d="M0.0339355 0.018289C0.111488 0.0124365 0.168555 0.0036578 0.224891 0.0036578C3.22384 0.00292624 6.22279 0.0036578 9.22174 0C9.35856 0 9.44269 0.0460882 9.5283 0.150701C10.5892 1.44849 11.4349 2.86844 11.9983 4.45081C12.3048 5.31258 12.517 6.19704 12.6655 7.09978C12.8345 8.12909 12.9384 9.16424 12.9487 10.206C12.9684 12.2287 12.9757 14.2515 12.9882 16.2743C12.9889 16.4528 12.9882 16.6313 12.9713 16.8127C11.1781 9.28276 6.86297 3.70315 0.0339355 0.018289Z"
      fill="black" fill-opacity="0.2" />
    <path
      d="M0.0339355 0.018289C0.111488 0.0124365 0.168555 0.0036578 0.224891 0.0036578C3.22384 0.00292624 6.22279 0.0036578 9.22174 0C9.35856 0 9.44269 0.0460882 9.5283 0.150701C10.5892 1.44849 11.4349 2.86844 11.9983 4.45081C12.3048 5.31258 12.517 6.19704 12.6655 7.09978C12.8345 8.12909 12.9384 9.16424 12.9487 10.206C12.9684 12.2287 12.9757 14.2515 12.9882 16.2743C12.9889 16.4528 12.9882 16.6313 12.9713 16.8127C11.1781 9.28276 6.86297 3.70315 0.0339355 0.018289Z"
      fill="black" fill-opacity="0.2" />
    <path
      d="M0.0339355 0.018289C0.111488 0.0124365 0.168555 0.0036578 0.224891 0.0036578C3.22384 0.00292624 6.22279 0.0036578 9.22174 0C9.35856 0 9.44269 0.0460882 9.5283 0.150701C10.5892 1.44849 11.4349 2.86844 11.9983 4.45081C12.3048 5.31258 12.517 6.19704 12.6655 7.09978C12.8345 8.12909 12.9384 9.16424 12.9487 10.206C12.9684 12.2287 12.9757 14.2515 12.9882 16.2743C12.9889 16.4528 12.9882 16.6313 12.9713 16.8127C11.1781 9.28276 6.86297 3.70315 0.0339355 0.018289Z"
      fill="black" fill-opacity="0.2" />
    <path
      d="M0.0339355 0.018289C0.111488 0.0124365 0.168555 0.0036578 0.224891 0.0036578C3.22384 0.00292624 6.22279 0.0036578 9.22174 0C9.35856 0 9.44269 0.0460882 9.5283 0.150701C10.5892 1.44849 11.4349 2.86844 11.9983 4.45081C12.3048 5.31258 12.517 6.19704 12.6655 7.09978C12.8345 8.12909 12.9384 9.16424 12.9487 10.206C12.9684 12.2287 12.9757 14.2515 12.9882 16.2743C12.9889 16.4528 12.9882 16.6313 12.9713 16.8127C11.1781 9.28276 6.86297 3.70315 0.0339355 0.018289Z"
      fill="black" fill-opacity="0.2" />
    <path
      d="M0.0339355 0.018289C0.111488 0.0124365 0.168555 0.0036578 0.224891 0.0036578C3.22384 0.00292624 6.22279 0.0036578 9.22174 0C9.35856 0 9.44269 0.0460882 9.5283 0.150701C10.5892 1.44849 11.4349 2.86844 11.9983 4.45081C12.3048 5.31258 12.517 6.19704 12.6655 7.09978C12.8345 8.12909 12.9384 9.16424 12.9487 10.206C12.9684 12.2287 12.9757 14.2515 12.9882 16.2743C12.9889 16.4528 12.9882 16.6313 12.9713 16.8127C11.1781 9.28276 6.86297 3.70315 0.0339355 0.018289Z"
      fill="black" fill-opacity="0.2" />
    <path
      d="M0.0339355 0.018289C0.111488 0.0124365 0.168555 0.0036578 0.224891 0.0036578C3.22384 0.00292624 6.22279 0.0036578 9.22174 0C9.35856 0 9.44269 0.0460882 9.5283 0.150701C10.5892 1.44849 11.4349 2.86844 11.9983 4.45081C12.3048 5.31258 12.517 6.19704 12.6655 7.09978C12.8345 8.12909 12.9384 9.16424 12.9487 10.206C12.9684 12.2287 12.9757 14.2515 12.9882 16.2743C12.9889 16.4528 12.9882 16.6313 12.9713 16.8127C11.1781 9.28276 6.86297 3.70315 0.0339355 0.018289Z"
      fill="black" fill-opacity="0.2" />
    <path
      d="M0.0339355 0.018289C0.111488 0.0124365 0.168555 0.0036578 0.224891 0.0036578C3.22384 0.00292624 6.22279 0.0036578 9.22174 0C9.35856 0 9.44269 0.0460882 9.5283 0.150701C10.5892 1.44849 11.4349 2.86844 11.9983 4.45081C12.3048 5.31258 12.517 6.19704 12.6655 7.09978C12.8345 8.12909 12.9384 9.16424 12.9487 10.206C12.9684 12.2287 12.9757 14.2515 12.9882 16.2743C12.9889 16.4528 12.9882 16.6313 12.9713 16.8127C11.1781 9.28276 6.86297 3.70315 0.0339355 0.018289Z"
      fill="black" fill-opacity="0.2" />
    <path
      d="M30.3092 0.0235098C23.4823 3.70837 19.1723 9.28432 17.3593 16.8113C17.3593 16.744 17.3593 16.6767 17.3593 16.6094C17.3593 14.7995 17.3491 12.9897 17.3637 11.1798C17.374 9.87688 17.453 8.57617 17.6454 7.28497C18.0456 4.60307 19.1028 2.2138 20.8455 0.133244C20.9026 0.0652087 21.0153 0.00814707 21.1023 0.00814707C24.1188 0.00156304 27.1361 0.0022946 30.1526 0.00302616C30.198 0.00302616 30.2441 0.0147311 30.3084 0.0235098H30.3092Z"
      fill="#00481D" />
    <path
      d="M30.3092 0.0235098C23.4823 3.70837 19.1723 9.28432 17.3593 16.8113C17.3593 16.744 17.3593 16.6767 17.3593 16.6094C17.3593 14.7995 17.3491 12.9897 17.3637 11.1798C17.374 9.87688 17.453 8.57617 17.6454 7.28497C18.0456 4.60307 19.1028 2.2138 20.8455 0.133244C20.9026 0.0652087 21.0153 0.00814707 21.1023 0.00814707C24.1188 0.00156304 27.1361 0.0022946 30.1526 0.00302616C30.198 0.00302616 30.2441 0.0147311 30.3084 0.0235098H30.3092Z"
      fill="black" fill-opacity="0.2" />
    <path
      d="M30.3092 0.0235098C23.4823 3.70837 19.1723 9.28432 17.3593 16.8113C17.3593 16.744 17.3593 16.6767 17.3593 16.6094C17.3593 14.7995 17.3491 12.9897 17.3637 11.1798C17.374 9.87688 17.453 8.57617 17.6454 7.28497C18.0456 4.60307 19.1028 2.2138 20.8455 0.133244C20.9026 0.0652087 21.0153 0.00814707 21.1023 0.00814707C24.1188 0.00156304 27.1361 0.0022946 30.1526 0.00302616C30.198 0.00302616 30.2441 0.0147311 30.3084 0.0235098H30.3092Z"
      fill="black" fill-opacity="0.2" />
    <path
      d="M30.3092 0.0235098C23.4823 3.70837 19.1723 9.28432 17.3593 16.8113C17.3593 16.744 17.3593 16.6767 17.3593 16.6094C17.3593 14.7995 17.3491 12.9897 17.3637 11.1798C17.374 9.87688 17.453 8.57617 17.6454 7.28497C18.0456 4.60307 19.1028 2.2138 20.8455 0.133244C20.9026 0.0652087 21.0153 0.00814707 21.1023 0.00814707C24.1188 0.00156304 27.1361 0.0022946 30.1526 0.00302616C30.198 0.00302616 30.2441 0.0147311 30.3084 0.0235098H30.3092Z"
      fill="black" fill-opacity="0.2" />
    <path
      d="M30.3092 0.0235098C23.4823 3.70837 19.1723 9.28432 17.3593 16.8113C17.3593 16.744 17.3593 16.6767 17.3593 16.6094C17.3593 14.7995 17.3491 12.9897 17.3637 11.1798C17.374 9.87688 17.453 8.57617 17.6454 7.28497C18.0456 4.60307 19.1028 2.2138 20.8455 0.133244C20.9026 0.0652087 21.0153 0.00814707 21.1023 0.00814707C24.1188 0.00156304 27.1361 0.0022946 30.1526 0.00302616C30.198 0.00302616 30.2441 0.0147311 30.3084 0.0235098H30.3092Z"
      fill="black" fill-opacity="0.2" />
    <path
      d="M30.3092 0.0235098C23.4823 3.70837 19.1723 9.28432 17.3593 16.8113C17.3593 16.744 17.3593 16.6767 17.3593 16.6094C17.3593 14.7995 17.3491 12.9897 17.3637 11.1798C17.374 9.87688 17.453 8.57617 17.6454 7.28497C18.0456 4.60307 19.1028 2.2138 20.8455 0.133244C20.9026 0.0652087 21.0153 0.00814707 21.1023 0.00814707C24.1188 0.00156304 27.1361 0.0022946 30.1526 0.00302616C30.198 0.00302616 30.2441 0.0147311 30.3084 0.0235098H30.3092Z"
      fill="black" fill-opacity="0.2" />
    <path
      d="M30.3092 0.0235098C23.4823 3.70837 19.1723 9.28432 17.3593 16.8113C17.3593 16.744 17.3593 16.6767 17.3593 16.6094C17.3593 14.7995 17.3491 12.9897 17.3637 11.1798C17.374 9.87688 17.453 8.57617 17.6454 7.28497C18.0456 4.60307 19.1028 2.2138 20.8455 0.133244C20.9026 0.0652087 21.0153 0.00814707 21.1023 0.00814707C24.1188 0.00156304 27.1361 0.0022946 30.1526 0.00302616C30.198 0.00302616 30.2441 0.0147311 30.3084 0.0235098H30.3092Z"
      fill="black" fill-opacity="0.2" />
    <path
      d="M30.3092 0.0235098C23.4823 3.70837 19.1723 9.28432 17.3593 16.8113C17.3593 16.744 17.3593 16.6767 17.3593 16.6094C17.3593 14.7995 17.3491 12.9897 17.3637 11.1798C17.374 9.87688 17.453 8.57617 17.6454 7.28497C18.0456 4.60307 19.1028 2.2138 20.8455 0.133244C20.9026 0.0652087 21.0153 0.00814707 21.1023 0.00814707C24.1188 0.00156304 27.1361 0.0022946 30.1526 0.00302616C30.198 0.00302616 30.2441 0.0147311 30.3084 0.0235098H30.3092Z"
      fill="black" fill-opacity="0.2" />
    <path
      d="M30.3092 0.0235098C23.4823 3.70837 19.1723 9.28432 17.3593 16.8113C17.3593 16.744 17.3593 16.6767 17.3593 16.6094C17.3593 14.7995 17.3491 12.9897 17.3637 11.1798C17.374 9.87688 17.453 8.57617 17.6454 7.28497C18.0456 4.60307 19.1028 2.2138 20.8455 0.133244C20.9026 0.0652087 21.0153 0.00814707 21.1023 0.00814707C24.1188 0.00156304 27.1361 0.0022946 30.1526 0.00302616C30.198 0.00302616 30.2441 0.0147311 30.3084 0.0235098H30.3092Z"
      fill="black" fill-opacity="0.2" />
    <path
      d="M30.3092 0.0235098C23.4823 3.70837 19.1723 9.28432 17.3593 16.8113C17.3593 16.744 17.3593 16.6767 17.3593 16.6094C17.3593 14.7995 17.3491 12.9897 17.3637 11.1798C17.374 9.87688 17.453 8.57617 17.6454 7.28497C18.0456 4.60307 19.1028 2.2138 20.8455 0.133244C20.9026 0.0652087 21.0153 0.00814707 21.1023 0.00814707C24.1188 0.00156304 27.1361 0.0022946 30.1526 0.00302616C30.198 0.00302616 30.2441 0.0147311 30.3084 0.0235098H30.3092Z"
      fill="black" fill-opacity="0.2" />
    <path
      d="M30.3092 0.0235098C23.4823 3.70837 19.1723 9.28432 17.3593 16.8113C17.3593 16.744 17.3593 16.6767 17.3593 16.6094C17.3593 14.7995 17.3491 12.9897 17.3637 11.1798C17.374 9.87688 17.453 8.57617 17.6454 7.28497C18.0456 4.60307 19.1028 2.2138 20.8455 0.133244C20.9026 0.0652087 21.0153 0.00814707 21.1023 0.00814707C24.1188 0.00156304 27.1361 0.0022946 30.1526 0.00302616C30.198 0.00302616 30.2441 0.0147311 30.3084 0.0235098H30.3092Z"
      fill="black" fill-opacity="0.2" />
    <path
      d="M19.0837 18.3994C19.7744 16.6129 20.7694 15.0108 22.0746 13.6026C24.32 11.1804 27.0666 9.6485 30.3289 8.9762V19.161C30.2118 19.0081 30.1211 18.8866 30.026 18.7674C29.1649 17.6839 28.0652 16.978 26.7088 16.6868C25.7057 16.471 24.6953 16.4425 23.6769 16.5691C22.0264 16.7754 20.5433 17.3855 19.2132 18.3782C19.1862 18.3987 19.1547 18.4133 19.1254 18.4309C19.1115 18.4199 19.0976 18.4089 19.0837 18.398V18.3994Z"
      fill="#00481D" />
    <path
      d="M19.0837 18.3994C19.7744 16.6129 20.7694 15.0108 22.0746 13.6026C24.32 11.1804 27.0666 9.6485 30.3289 8.9762V19.161C30.2118 19.0081 30.1211 18.8866 30.026 18.7674C29.1649 17.6839 28.0652 16.978 26.7088 16.6868C25.7057 16.471 24.6953 16.4425 23.6769 16.5691C22.0264 16.7754 20.5433 17.3855 19.2132 18.3782C19.1862 18.3987 19.1547 18.4133 19.1254 18.4309C19.1115 18.4199 19.0976 18.4089 19.0837 18.398V18.3994Z"
      fill="black" fill-opacity="0.2" />
    <path
      d="M19.0837 18.3994C19.7744 16.6129 20.7694 15.0108 22.0746 13.6026C24.32 11.1804 27.0666 9.6485 30.3289 8.9762V19.161C30.2118 19.0081 30.1211 18.8866 30.026 18.7674C29.1649 17.6839 28.0652 16.978 26.7088 16.6868C25.7057 16.471 24.6953 16.4425 23.6769 16.5691C22.0264 16.7754 20.5433 17.3855 19.2132 18.3782C19.1862 18.3987 19.1547 18.4133 19.1254 18.4309C19.1115 18.4199 19.0976 18.4089 19.0837 18.398V18.3994Z"
      fill="black" fill-opacity="0.2" />
    <path
      d="M19.0837 18.3994C19.7744 16.6129 20.7694 15.0108 22.0746 13.6026C24.32 11.1804 27.0666 9.6485 30.3289 8.9762V19.161C30.2118 19.0081 30.1211 18.8866 30.026 18.7674C29.1649 17.6839 28.0652 16.978 26.7088 16.6868C25.7057 16.471 24.6953 16.4425 23.6769 16.5691C22.0264 16.7754 20.5433 17.3855 19.2132 18.3782C19.1862 18.3987 19.1547 18.4133 19.1254 18.4309C19.1115 18.4199 19.0976 18.4089 19.0837 18.398V18.3994Z"
      fill="black" fill-opacity="0.2" />
    <path
      d="M19.0837 18.3994C19.7744 16.6129 20.7694 15.0108 22.0746 13.6026C24.32 11.1804 27.0666 9.6485 30.3289 8.9762V19.161C30.2118 19.0081 30.1211 18.8866 30.026 18.7674C29.1649 17.6839 28.0652 16.978 26.7088 16.6868C25.7057 16.471 24.6953 16.4425 23.6769 16.5691C22.0264 16.7754 20.5433 17.3855 19.2132 18.3782C19.1862 18.3987 19.1547 18.4133 19.1254 18.4309C19.1115 18.4199 19.0976 18.4089 19.0837 18.398V18.3994Z"
      fill="black" fill-opacity="0.2" />
    <path
      d="M19.0837 18.3994C19.7744 16.6129 20.7694 15.0108 22.0746 13.6026C24.32 11.1804 27.0666 9.6485 30.3289 8.9762V19.161C30.2118 19.0081 30.1211 18.8866 30.026 18.7674C29.1649 17.6839 28.0652 16.978 26.7088 16.6868C25.7057 16.471 24.6953 16.4425 23.6769 16.5691C22.0264 16.7754 20.5433 17.3855 19.2132 18.3782C19.1862 18.3987 19.1547 18.4133 19.1254 18.4309C19.1115 18.4199 19.0976 18.4089 19.0837 18.398V18.3994Z"
      fill="black" fill-opacity="0.2" />
    <path
      d="M19.0837 18.3994C19.7744 16.6129 20.7694 15.0108 22.0746 13.6026C24.32 11.1804 27.0666 9.6485 30.3289 8.9762V19.161C30.2118 19.0081 30.1211 18.8866 30.026 18.7674C29.1649 17.6839 28.0652 16.978 26.7088 16.6868C25.7057 16.471 24.6953 16.4425 23.6769 16.5691C22.0264 16.7754 20.5433 17.3855 19.2132 18.3782C19.1862 18.3987 19.1547 18.4133 19.1254 18.4309C19.1115 18.4199 19.0976 18.4089 19.0837 18.398V18.3994Z"
      fill="black" fill-opacity="0.2" />
    <path
      d="M19.0837 18.3994C19.7744 16.6129 20.7694 15.0108 22.0746 13.6026C24.32 11.1804 27.0666 9.6485 30.3289 8.9762V19.161C30.2118 19.0081 30.1211 18.8866 30.026 18.7674C29.1649 17.6839 28.0652 16.978 26.7088 16.6868C25.7057 16.471 24.6953 16.4425 23.6769 16.5691C22.0264 16.7754 20.5433 17.3855 19.2132 18.3782C19.1862 18.3987 19.1547 18.4133 19.1254 18.4309C19.1115 18.4199 19.0976 18.4089 19.0837 18.398V18.3994Z"
      fill="black" fill-opacity="0.2" />
    <path
      d="M19.0837 18.3994C19.7744 16.6129 20.7694 15.0108 22.0746 13.6026C24.32 11.1804 27.0666 9.6485 30.3289 8.9762V19.161C30.2118 19.0081 30.1211 18.8866 30.026 18.7674C29.1649 17.6839 28.0652 16.978 26.7088 16.6868C25.7057 16.471 24.6953 16.4425 23.6769 16.5691C22.0264 16.7754 20.5433 17.3855 19.2132 18.3782C19.1862 18.3987 19.1547 18.4133 19.1254 18.4309C19.1115 18.4199 19.0976 18.4089 19.0837 18.398V18.3994Z"
      fill="black" fill-opacity="0.2" />
    <path
      d="M19.0837 18.3994C19.7744 16.6129 20.7694 15.0108 22.0746 13.6026C24.32 11.1804 27.0666 9.6485 30.3289 8.9762V19.161C30.2118 19.0081 30.1211 18.8866 30.026 18.7674C29.1649 17.6839 28.0652 16.978 26.7088 16.6868C25.7057 16.471 24.6953 16.4425 23.6769 16.5691C22.0264 16.7754 20.5433 17.3855 19.2132 18.3782C19.1862 18.3987 19.1547 18.4133 19.1254 18.4309C19.1115 18.4199 19.0976 18.4089 19.0837 18.398V18.3994Z"
      fill="black" fill-opacity="0.2" />
    <path
      d="M19.0837 18.3994C19.7744 16.6129 20.7694 15.0108 22.0746 13.6026C24.32 11.1804 27.0666 9.6485 30.3289 8.9762V19.161C30.2118 19.0081 30.1211 18.8866 30.026 18.7674C29.1649 17.6839 28.0652 16.978 26.7088 16.6868C25.7057 16.471 24.6953 16.4425 23.6769 16.5691C22.0264 16.7754 20.5433 17.3855 19.2132 18.3782C19.1862 18.3987 19.1547 18.4133 19.1254 18.4309C19.1115 18.4199 19.0976 18.4089 19.0837 18.398V18.3994Z"
      fill="black" fill-opacity="0.2" />
    <path
      d="M11.226 18.4333C10.9817 18.2679 10.7417 18.0975 10.4929 17.9395C9.54987 17.3374 8.52705 16.9299 7.43326 16.6951C6.48434 16.4917 5.52663 16.4478 4.56308 16.5363C2.9513 16.6848 1.57218 17.3154 0.497411 18.5503C0.338647 18.7325 0.198174 18.9314 0.022583 19.1575V8.98517C0.975897 9.16367 1.89702 9.43654 2.78888 9.80159C5.59687 10.9509 7.86858 12.7746 9.60181 15.2634C10.2837 16.2422 10.8441 17.2862 11.2619 18.4033L11.2246 18.4325L11.226 18.4333Z"
      fill="#00481D" />
    <path
      d="M11.226 18.4333C10.9817 18.2679 10.7417 18.0975 10.4929 17.9395C9.54987 17.3374 8.52705 16.9299 7.43326 16.6951C6.48434 16.4917 5.52663 16.4478 4.56308 16.5363C2.9513 16.6848 1.57218 17.3154 0.497411 18.5503C0.338647 18.7325 0.198174 18.9314 0.022583 19.1575V8.98517C0.975897 9.16367 1.89702 9.43654 2.78888 9.80159C5.59687 10.9509 7.86858 12.7746 9.60181 15.2634C10.2837 16.2422 10.8441 17.2862 11.2619 18.4033L11.2246 18.4325L11.226 18.4333Z"
      fill="black" fill-opacity="0.2" />
    <path
      d="M11.226 18.4333C10.9817 18.2679 10.7417 18.0975 10.4929 17.9395C9.54987 17.3374 8.52705 16.9299 7.43326 16.6951C6.48434 16.4917 5.52663 16.4478 4.56308 16.5363C2.9513 16.6848 1.57218 17.3154 0.497411 18.5503C0.338647 18.7325 0.198174 18.9314 0.022583 19.1575V8.98517C0.975897 9.16367 1.89702 9.43654 2.78888 9.80159C5.59687 10.9509 7.86858 12.7746 9.60181 15.2634C10.2837 16.2422 10.8441 17.2862 11.2619 18.4033L11.2246 18.4325L11.226 18.4333Z"
      fill="black" fill-opacity="0.2" />
    <path
      d="M11.226 18.4333C10.9817 18.2679 10.7417 18.0975 10.4929 17.9395C9.54987 17.3374 8.52705 16.9299 7.43326 16.6951C6.48434 16.4917 5.52663 16.4478 4.56308 16.5363C2.9513 16.6848 1.57218 17.3154 0.497411 18.5503C0.338647 18.7325 0.198174 18.9314 0.022583 19.1575V8.98517C0.975897 9.16367 1.89702 9.43654 2.78888 9.80159C5.59687 10.9509 7.86858 12.7746 9.60181 15.2634C10.2837 16.2422 10.8441 17.2862 11.2619 18.4033L11.2246 18.4325L11.226 18.4333Z"
      fill="black" fill-opacity="0.2" />
    <path
      d="M11.226 18.4333C10.9817 18.2679 10.7417 18.0975 10.4929 17.9395C9.54987 17.3374 8.52705 16.9299 7.43326 16.6951C6.48434 16.4917 5.52663 16.4478 4.56308 16.5363C2.9513 16.6848 1.57218 17.3154 0.497411 18.5503C0.338647 18.7325 0.198174 18.9314 0.022583 19.1575V8.98517C0.975897 9.16367 1.89702 9.43654 2.78888 9.80159C5.59687 10.9509 7.86858 12.7746 9.60181 15.2634C10.2837 16.2422 10.8441 17.2862 11.2619 18.4033L11.2246 18.4325L11.226 18.4333Z"
      fill="black" fill-opacity="0.2" />
    <path
      d="M11.226 18.4333C10.9817 18.2679 10.7417 18.0975 10.4929 17.9395C9.54987 17.3374 8.52705 16.9299 7.43326 16.6951C6.48434 16.4917 5.52663 16.4478 4.56308 16.5363C2.9513 16.6848 1.57218 17.3154 0.497411 18.5503C0.338647 18.7325 0.198174 18.9314 0.022583 19.1575V8.98517C0.975897 9.16367 1.89702 9.43654 2.78888 9.80159C5.59687 10.9509 7.86858 12.7746 9.60181 15.2634C10.2837 16.2422 10.8441 17.2862 11.2619 18.4033L11.2246 18.4325L11.226 18.4333Z"
      fill="black" fill-opacity="0.2" />
    <path
      d="M11.226 18.4333C10.9817 18.2679 10.7417 18.0975 10.4929 17.9395C9.54987 17.3374 8.52705 16.9299 7.43326 16.6951C6.48434 16.4917 5.52663 16.4478 4.56308 16.5363C2.9513 16.6848 1.57218 17.3154 0.497411 18.5503C0.338647 18.7325 0.198174 18.9314 0.022583 19.1575V8.98517C0.975897 9.16367 1.89702 9.43654 2.78888 9.80159C5.59687 10.9509 7.86858 12.7746 9.60181 15.2634C10.2837 16.2422 10.8441 17.2862 11.2619 18.4033L11.2246 18.4325L11.226 18.4333Z"
      fill="black" fill-opacity="0.2" />
    <path
      d="M11.226 18.4333C10.9817 18.2679 10.7417 18.0975 10.4929 17.9395C9.54987 17.3374 8.52705 16.9299 7.43326 16.6951C6.48434 16.4917 5.52663 16.4478 4.56308 16.5363C2.9513 16.6848 1.57218 17.3154 0.497411 18.5503C0.338647 18.7325 0.198174 18.9314 0.022583 19.1575V8.98517C0.975897 9.16367 1.89702 9.43654 2.78888 9.80159C5.59687 10.9509 7.86858 12.7746 9.60181 15.2634C10.2837 16.2422 10.8441 17.2862 11.2619 18.4033L11.2246 18.4325L11.226 18.4333Z"
      fill="black" fill-opacity="0.2" />
    <path
      d="M11.226 18.4333C10.9817 18.2679 10.7417 18.0975 10.4929 17.9395C9.54987 17.3374 8.52705 16.9299 7.43326 16.6951C6.48434 16.4917 5.52663 16.4478 4.56308 16.5363C2.9513 16.6848 1.57218 17.3154 0.497411 18.5503C0.338647 18.7325 0.198174 18.9314 0.022583 19.1575V8.98517C0.975897 9.16367 1.89702 9.43654 2.78888 9.80159C5.59687 10.9509 7.86858 12.7746 9.60181 15.2634C10.2837 16.2422 10.8441 17.2862 11.2619 18.4033L11.2246 18.4325L11.226 18.4333Z"
      fill="black" fill-opacity="0.2" />
    <path
      d="M11.226 18.4333C10.9817 18.2679 10.7417 18.0975 10.4929 17.9395C9.54987 17.3374 8.52705 16.9299 7.43326 16.6951C6.48434 16.4917 5.52663 16.4478 4.56308 16.5363C2.9513 16.6848 1.57218 17.3154 0.497411 18.5503C0.338647 18.7325 0.198174 18.9314 0.022583 19.1575V8.98517C0.975897 9.16367 1.89702 9.43654 2.78888 9.80159C5.59687 10.9509 7.86858 12.7746 9.60181 15.2634C10.2837 16.2422 10.8441 17.2862 11.2619 18.4033L11.2246 18.4325L11.226 18.4333Z"
      fill="black" fill-opacity="0.2" />
    <path
      d="M11.226 18.4333C10.9817 18.2679 10.7417 18.0975 10.4929 17.9395C9.54987 17.3374 8.52705 16.9299 7.43326 16.6951C6.48434 16.4917 5.52663 16.4478 4.56308 16.5363C2.9513 16.6848 1.57218 17.3154 0.497411 18.5503C0.338647 18.7325 0.198174 18.9314 0.022583 19.1575V8.98517C0.975897 9.16367 1.89702 9.43654 2.78888 9.80159C5.59687 10.9509 7.86858 12.7746 9.60181 15.2634C10.2837 16.2422 10.8441 17.2862 11.2619 18.4033L11.2246 18.4325L11.226 18.4333Z"
      fill="black" fill-opacity="0.2" />
  </g>
  <defs>
    <clipPath id="clip0_596_91">
      <rect width="30.3524" height="30.3524" fill="white" />
    </clipPath>
  </defs>
</svg>