<svg width="20" height="21" viewBox="0 0 20 21" fill="none" xmlns="http://www.w3.org/2000/svg">
  <path
    d="M17.8333 6.60246C18.5 7.26912 18.5 8.35246 17.8333 8.93579L15.5 11.2691L8.99996 4.76912L11.3333 2.43579C12 1.76912 13.0833 1.76912 13.6666 2.43579L15.1666 3.93579L17.6666 1.43579L18.8333 2.60246L16.3333 5.10246L17.8333 6.60246ZM13 11.4358L11.8333 10.2691L9.49996 12.6025L7.74996 10.8525L10.0833 8.51912L8.91663 7.35246L6.58329 9.68579L5.33329 8.51912L2.99996 10.8525C2.33329 11.5191 2.33329 12.6025 2.99996 13.1858L4.49996 14.6858L1.16663 18.0191L2.33329 19.1858L5.66663 15.8525L7.16663 17.3525C7.83329 18.0191 8.91663 18.0191 9.49996 17.3525L11.8333 15.0191L10.6666 13.8525L13 11.4358Z"
    fill="#A3A9B6" />
</svg>