<svg width="27" height="22" viewBox="0 0 27 22" fill="none" xmlns="http://www.w3.org/2000/svg">
  <path
    d="M7.06152 5.42985H7.07246M7.06152 16.2936H7.07246M4.87402 1.80859H22.374C23.5821 1.80859 24.5615 2.61924 24.5615 3.61922V7.24047C24.5615 8.24045 23.5821 9.0511 22.374 9.0511H4.87402C3.6659 9.0511 2.68652 8.24045 2.68652 7.24047V3.61922C2.68652 2.61924 3.6659 1.80859 4.87402 1.80859ZM4.87402 12.6724H22.374C23.5821 12.6724 24.5615 13.483 24.5615 14.483V18.1042C24.5615 19.1042 23.5821 19.9149 22.374 19.9149H4.87402C3.6659 19.9149 2.68652 19.1042 2.68652 18.1042V14.483C2.68652 13.483 3.6659 12.6724 4.87402 12.6724Z"
    stroke="#1873DE" stroke-width="1.81062" stroke-linecap="round" stroke-linejoin="round" />
</svg>