<svg width="17" height="18" viewBox="0 0 17 18" fill="none" xmlns="http://www.w3.org/2000/svg">
  <path
    d="M10.2358 6.82251L6.76354 10.5841M6.76354 6.82251L10.2358 10.5841M14.0552 9.45561C14.0552 13.2172 11.6246 15.098 8.73576 16.1888C8.58448 16.2444 8.42016 16.2417 8.27048 16.1813C5.37465 15.098 2.94409 13.2172 2.94409 9.45561V4.18941C2.94409 3.98988 3.01726 3.79853 3.14749 3.65744C3.27772 3.51635 3.45436 3.43709 3.63854 3.43709C5.02742 3.43709 6.76353 2.53431 7.97187 1.3908C8.11899 1.25463 8.30614 1.17981 8.49965 1.17981C8.69315 1.17981 8.8803 1.25463 9.02742 1.3908C10.2427 2.54184 11.9719 3.43709 13.3608 3.43709C13.5449 3.43709 13.7216 3.51635 13.8518 3.65744C13.982 3.79853 14.0552 3.98988 14.0552 4.18941V9.45561Z"
    stroke="#FFF8F7" stroke-width="1.46" stroke-linecap="round" stroke-linejoin="round" />
</svg>