<svg width="14" height="14" viewBox="0 0 14 14" fill="none" xmlns="http://www.w3.org/2000/svg">
  <mask id="mask0_1_475" style="mask-type:alpha" maskUnits="userSpaceOnUse" x="0" y="0" width="14"
    height="14">
    <rect x="0.0400391" y="0.910034" width="13" height="13" fill="#D9D9D9" />
  </mask>
  <g mask="url(#mask0_1_475)">
    <path
      d="M0.581543 11.7436V10.2269C0.581543 9.91996 0.660536 9.63784 0.818522 9.38055C0.976508 9.12326 1.1864 8.9269 1.44821 8.79149C2.00793 8.51163 2.57668 8.30173 3.15446 8.1618C3.73224 8.02187 4.31904 7.9519 4.91488 7.9519C5.51071 7.9519 6.09751 8.02187 6.67529 8.1618C7.25307 8.30173 7.82182 8.51163 8.38154 8.79149C8.64335 8.9269 8.85324 9.12326 9.01123 9.38055C9.16922 9.63784 9.24821 9.91996 9.24821 10.2269V11.7436H0.581543ZM10.3315 11.7436V10.1186C10.3315 9.72135 10.221 9.33992 9.99977 8.9743C9.77859 8.60867 9.46488 8.29496 9.05863 8.03315C9.51904 8.08732 9.95238 8.17986 10.3586 8.31076C10.7649 8.44166 11.144 8.6019 11.4961 8.79149C11.8211 8.97204 12.0694 9.17291 12.2409 9.39409C12.4124 9.61527 12.4982 9.85676 12.4982 10.1186V11.7436H10.3315ZM4.91488 7.41024C4.31904 7.41024 3.80897 7.19808 3.38467 6.77378C2.96036 6.34947 2.74821 5.8394 2.74821 5.24357C2.74821 4.64774 2.96036 4.13767 3.38467 3.71336C3.80897 3.28906 4.31904 3.0769 4.91488 3.0769C5.51071 3.0769 6.02078 3.28906 6.44508 3.71336C6.86939 4.13767 7.08154 4.64774 7.08154 5.24357C7.08154 5.8394 6.86939 6.34947 6.44508 6.77378C6.02078 7.19808 5.51071 7.41024 4.91488 7.41024ZM10.3315 5.24357C10.3315 5.8394 10.1194 6.34947 9.69508 6.77378C9.27078 7.19808 8.76071 7.41024 8.16488 7.41024C8.06557 7.41024 7.93918 7.39895 7.78571 7.37638C7.63224 7.35381 7.50585 7.32899 7.40654 7.3019C7.65029 7.01302 7.83762 6.69253 7.96852 6.34045C8.09942 5.98836 8.16488 5.62274 8.16488 5.24357C8.16488 4.8644 8.09942 4.49878 7.96852 4.1467C7.83762 3.79461 7.65029 3.47413 7.40654 3.18524C7.53293 3.1401 7.65932 3.11076 7.78571 3.09722C7.9121 3.08368 8.03849 3.0769 8.16488 3.0769C8.76071 3.0769 9.27078 3.28906 9.69508 3.71336C10.1194 4.13767 10.3315 4.64774 10.3315 5.24357ZM1.66488 10.6602H8.16488V10.2269C8.16488 10.1276 8.14005 10.0373 8.0904 9.95607C8.04074 9.87482 7.97529 9.81163 7.89404 9.76649C7.40654 9.52274 6.91453 9.33992 6.418 9.21805C5.92147 9.09618 5.42043 9.03524 4.91488 9.03524C4.40932 9.03524 3.90828 9.09618 3.41175 9.21805C2.91522 9.33992 2.42321 9.52274 1.93571 9.76649C1.85446 9.81163 1.78901 9.87482 1.73936 9.95607C1.6897 10.0373 1.66488 10.1276 1.66488 10.2269V10.6602ZM4.91488 6.3269C5.21279 6.3269 5.46783 6.22083 5.67998 6.00867C5.89213 5.79652 5.99821 5.54149 5.99821 5.24357C5.99821 4.94565 5.89213 4.69062 5.67998 4.47847C5.46783 4.26631 5.21279 4.16024 4.91488 4.16024C4.61696 4.16024 4.36192 4.26631 4.14977 4.47847C3.93762 4.69062 3.83154 4.94565 3.83154 5.24357C3.83154 5.54149 3.93762 5.79652 4.14977 6.00867C4.36192 6.22083 4.61696 6.3269 4.91488 6.3269Z"
      fill="white" />
  </g>
</svg>